<svg xmlns="http://www.w3.org/2000/svg" xmlns:xlink="http://www.w3.org/1999/xlink" aria-hidden="true" role="img" class="iconify iconify--logos" width="31.28" height="32" preserveAspectRatio="xMidYMid meet" viewBox="0 0 256 261"><path fill="#00D8FF" d="M128 261c-1.5 0-3-.1-4.3-1.2c-3-2.2-3.2-6-1.3-9c1.7-2.7 1.9-4.6 1.9-7.6c.1-26.1-4.6-50.8-14.1-75.2c-6.7-17.2-15.1-33.6-25.1-49.3c-12.8-20.1-27.3-38.8-43.9-56.1c-2.3-2.4-4.7-4.7-7.1-7c-2.6-2.5-6.9-2.5-9.5 0c-2.5 2.5-2.6 6.7-.2 9.3c2.6 2.8 5.3 5.5 7.8 8.3c19.7 21.9 36.1 46.2 49 72.7c11.8 24.2 19.6 49.5 23 76.1c1.3 10.1 2 20.2 1.8 30.4c0 2.4-.2 4.7-.5 7c-.4 2.6.3 4.7 2.5 6.3c2.4 1.7 5.2 1.9 7.9.6c2.6-1.3 3.8-3.6 4.1-6.4c.1-1.3.2-2.6.2-3.9V144.3c0-2.6-.8-5 1.4-7c2.4-2.2 5.3-2.4 8.2-1.4c2.7.9 4.3 3 4.9 5.7c.4 1.6.5 3.3.5 5v108.5c0 2.6.7 4.8 2.9 6.4c3.3 2.4 7.8 1.7 10.3-1.4c1.2-1.5 1.6-3.2 1.6-5.1c-.1-35.4.1-70.8-.1-106.2c0-5.3 1.6-9.6 5.9-13c2.4-1.9 3.3-4.4 3.3-7.4c-.1-25.8.1-51.6 0-77.4c0-5.7 1.8-10.6 5.4-15c2.8-3.5 2.4-8.1-.6-11.4c-3.1-3.4-7.8-3.9-11.6-1.3c-1.5 1-2.7 2.3-3.9 3.6c-18.6 20.1-34.1 42.3-47 66.6c-11.5 21.6-20.6 44.1-26.6 67.9c-.7 2.7-1.1 5.4-1.7 8.1c-.7 3 .3 5.4 2.9 7.1c2.7 1.7 5.4 1.8 8.2.4c2.7-1.4 3.8-3.9 4.3-6.7c.5-2.8.9-5.6 1.5-8.4c4.7-22.1 12.4-43.2 22.2-63.5c10.4-21.5 22.9-41.7 37.6-60.5c.7-.9 1.5-1.7 2.3-2.5c2.5-2.5 2.6-6.6.2-9.2c-2.5-2.7-6.7-2.8-9.4-.4c-3.3 2.9-6.4 6-9.5 9.2c-25.6 26.7-46.4 56.8-62.7 90.1c-10.5 21.4-18.6 43.6-23.9 66.9c-.5 2.2-.8 4.4-1.2 6.6c-.6 2.9.2 5.2 2.7 6.9c2.6 1.8 5.4 1.9 8.2.6c2.6-1.2 3.8-3.5 4.2-6.2c.3-2.1.5-4.2.8-6.3c2.4-17.8 6.8-35.1 12.7-52c10.7-30.7 26.1-59.3 45.2-85.9c12.7-17.7 26.8-34.1 42.1-49.5c2.3-2.3 4.7-4.5 7.1-6.7c2.7-2.4 6.8-2.3 9.4.2c2.6 2.5 2.8 6.6.5 9.4c-1.9 2.3-4 4.5-6.1 6.7c-25.2 26.3-46.2 55.7-63 88.3c-12.6 24.4-22.3 49.9-28.8 76.6c-.6 2.5-1 5-1.5 7.5c-.6 2.9.2 5.3 2.7 7c2.6 1.8 5.4 1.9 8.2.5c2.6-1.3 3.8-3.6 4.3-6.4c.4-2.3.7-4.6 1.1-6.9c4.4-24.1 12-47.3 22.1-69.7c12.3-27.1 27.6-52.4 45.7-76c.6-.8 1.2-1.5 1.8-2.2c2.6-2.8 2.6-6.9.1-9.5c-2.5-2.6-6.7-2.7-9.4-.3c-2.7 2.4-5.3 5-7.8 7.6c-26.9 28.1-49.3 59.5-67 94.5c-13.4 26.5-23.6 54.1-30.3 83.2c-.5 2.3-.9 4.6-1.3 6.9c-.5 2.8.3 5.1 2.8 6.8c2.6 1.8 5.4 1.9 8.1.5c2.6-1.3 3.8-3.6 4.3-6.4c.3-2 .5-4 .9-6c5.5-30.2 14.8-59.1 27.4-87c14.9-32.9 33.8-63.4 56.4-91.6c12.4-15.5 25.8-30 40.2-43.7c2.8-2.7 3-6.8.6-9.5c-2.5-2.8-6.8-2.9-9.7-.4c-2.6 2.3-5.1 4.7-7.5 7.2c-30.3 27.8-56.1 59.2-77.4 94.2c-17.3 28.4-31.3 58.2-41.7 89.7c-6.2 18.8-10.9 37.9-13.9 57.4c-.3 2-.4 4.1-.7 6.1c-.4 2.9.5 5.3 3.1 6.9c2.6 1.6 5.3 1.7 8 .3c2.6-1.3 3.8-3.7 4.3-6.5c.3-1.8.4-3.6.7-5.4c4-27.4 11.4-53.9 21.8-79.6c12.9-32 29.5-62.2 49.5-90.7c14.9-21.2 31.4-41 49.5-59.4c2.3-2.4 4.7-4.7 7.1-7c2.7-2.5 2.9-6.6.5-9.3c-2.5-2.8-6.7-2.9-9.5-.5c-2.8 2.4-5.5 4.9-8 7.5c-33.8 34.7-62.1 73.5-84.9 116.2c-15.9 29.8-28.3 61-37.2 93.7c-4.3 15.9-7.5 32-9.4 48.4c-.2 1.8-.4 3.6-.7 5.4c-.5 2.9.4 5.2 3 6.8c2.7 1.6 5.4 1.7 8.1.2c2.6-1.4 3.7-3.8 4.1-6.6c.2-1.6.3-3.2.5-4.8c.1 1.8.1 3.6 0 5.4c-.1-1.8-.1-3.6 0-5.4z"></path></svg>
